# xmcd
#
# Track frame offsets:
#	182
#	14455
#	30157
#	44380
#	66382
#
# Disc length: 1214 seconds
#
# Revision: 2
# Processed by: cddbd v1.5.2PL0 Copyright (c) Steve Scherf et al.
# Submitted via: EasyCDDAExtractor 10.2.0.1
#
DISCID=3804bc05
DTITLE=N Sync - I'll never stop CDM
DYEAR=2000
DGENRE=Pop
TTITLE0=I'll never stop (Radio Edit)
TTITLE1=I'll never stop (Album Version)
TTITLE2=I'll never stop (Instrumental)
TTITLE3=Bye bye bye (Riprock 'N' Alex G's Club Remix)
TTITLE4=Bye bye bye (Teddy Riley's Club Remix)
EXTD=
EXTT0=
EXTT1=
EXTT2=
EXTT3=
EXTT4=
PLAYORDER=
